<svg version="1" xmlns="http://www.w3.org/2000/svg" width="876" height="876" viewBox="0 0 657.000000 657.000000"><path d="M429.5 1.2c-8 2.9-12.8 8.9-19.5 24.7l-4.1 9.8-9.5 1.5c-12.7 2.1-20.5 6-27.7 13.8-9.5 10.3-13.3 21-12.5 35.9.5 10.4 3 16.5 10.5 26.5 3 3.9 5.6 8.1 5.9 9.3.7 2.6-25.7 55.2-31.6 63.1-3.9 5.2-14.9 14.8-20.3 17.7l-3.6 1.9-4.2-3c-13.7-9.4-21.3-19.4-33.2-43.6-4.1-8.4-9.1-18-11.1-21.2-1.9-3.2-4.3-7.8-5.2-10.2-1.6-4.3-1.6-4.4 1-8.6 1.5-2.4 4.5-6.8 6.6-9.8 5.9-8.3 8-16 8-29.4 0-11.1 0-11.3-3.6-17.2-17.3-28.8-52.7-34.7-75.2-12.4-18.2 18-18.8 46.6-1.4 65.2 10.5 11.3 14.3 12.7 36.5 14.4l9.5.7 16.3 36.6c8.9 20.1 22.2 50.1 29.5 66.6 7.3 16.5 16.1 36.1 19.7 43.5 3.5 7.4 8.6 18.9 11.2 25.5 2.7 6.6 7.1 16.9 9.8 23 2.7 6 10.7 24 17.7 40 7 15.9 15.7 35.6 19.4 43.6l6.8 14.6 5.1.7c8.6 1 28.7 2 28.7 1.3 0-3.7-35.6-99-55.4-148.2-3.1-7.6-5.6-14.5-5.6-15.2 0-.7-.4-1.3-.8-1.3-1.7 0-5.5-13-4.9-16.9.4-3.2 10.1-27 14.2-35.1 1.9-3.6 4-8.6 6.8-16 3.7-9.7 20.5-48.6 24.3-56.1l3.3-6.6 9.9-.6c16.6-1.1 26.8-5.3 35.4-14.5 5-5.3 8.8-12.1 10.9-19.2 1.6-5.7 1.8-6.7 2-16.5.1-7-.2-8.8-2.6-13.5-4.3-8.6-9.2-14.6-15.8-19.7-8-6-9.3-7.6-9.5-12.3-.5-8 4.9-15.6 16.6-23.2l6.3-4.1-2.4-3.1c-2.7-3.5-6.9-4.3-12.2-2.4zM247.7 52.3c5.2 2.7 9.4 7.2 8.6 9.4-.3.8.3 1.3 1.4 1.3 1.9 0 6.6 6.8 7.6 11.1.4 1.5.1 3.4-.8 4.7-1.4 1.9-1.3 2.4.4 5.6 1.9 3.3 1.9 3.9.6 8.3-3.1 10.4-11.5 19.3-21.4 22.8-5.8 2-18.1 2-20.7 0-1-.8-2.7-1.5-3.7-1.5-4.9-.1-17-12.1-15.1-15.1.4-.8.3-.9-.5-.5-1.4.9-4.5-5.9-3.7-8.1.3-.8.1-1.1-.4-.8-.6.4-1-1.9-1-5.9 0-3.6.4-6.6.8-6.6s.9-1.1 1-2.5c.5-7 8.3-17.8 15.4-21.6 8.8-4.7 22.9-5 31.5-.6zm168.3-.6c6.4 2.8 14.1 11.1 18.3 19.5 1.5 3.2 2.1 6.2 2.1 11.8 0 6.4-.4 8.5-3.1 14.2-5.9 12.6-15.3 19-28.8 19.6-15.7.7-24.9-5.2-32.2-20.6-4.3-9-4.5-9.8-3.9-15.6 1.1-10.9 8.6-22.9 17.1-27.4 9-4.7 22-5.3 30.5-1.5zm-92.5 190.9c1 1 1.5 2.9 1.3 4.8-.3 2.6-.9 3.3-4.3 4.4-6 2-8.5.5-8.5-5.2 0-2.6.5-4.6 1.3-4.9 2.8-1.2 8.6-.6 10.2.9z"/><path d="M203.5 71.1c-.4.6-.5 1.2-.2 1.5.2.3.7-.2 1-1.1.7-1.7.1-2-.8-.4zM203 75.4c0 .2.7.7 1.6 1 .8.3 1.2.2.9-.4-.6-1-2.5-1.4-2.5-.6zM201 86c0 .5.5 1 1.1 1 .5 0 .7-.5.4-1-.3-.6-.8-1-1.1-1-.2 0-.4.4-.4 1zM387 82c0 1.1.7 2 1.5 2 1.3 0 1.4-.4.5-2-.6-1.1-1.3-2-1.5-2-.3 0-.5.9-.5 2zM417.6 89.9c-.4.7-.5 1.5-.2 1.8.9.9 1.9-.4 1.4-1.8-.4-1.1-.6-1.1-1.2 0zM290.7 258.1c-2.9 4.6-5.8 11.6-23.8 58.9C212.2 460.4 185 539.3 169 601.4c-4.1 15.6-11 46-11 48.1 0 3.5 7-7.6 9.6-15 .9-2.7 2.9-7.6 4.5-10.9 1.6-3.3 2.9-6.5 2.9-7.3 0-.7.4-1.3.8-1.3.5 0 .9-.6.9-1.3 0-.6 2.4-6 5.2-11.9 2.9-5.9 5.1-10.9 5-11-.1-.2 1.7-3.9 4.2-8.3 2.4-4.4 4.3-8.1 4.2-8.2-.4-.5.8-3.7 3.7-9.8 2.6-5.3 4.8-10.4 8.3-18.5.5-1.4 1-2.8.9-3.3-.1-.4.2-.7.7-.7.5 0 1.2-1.3 1.6-2.9.3-1.6 1.3-3.5 2.1-4.2.8-.6 1.4-1.9 1.4-2.8 0-1 .8-2.6 1.8-3.7s1.7-2.5 1.5-3.1c-.3-.7.5-2.2 1.6-3.5 1.2-1.2 2.1-2.8 2.1-3.5 0-.7 1.3-4 3-7.4 1.6-3.4 3.1-7.1 3.3-8.3.2-1.2 2-5.5 3.9-9.6 2-4.1 4-8.9 4.6-10.5 1-2.9 32.2-72.4 61.7-137.5 8.2-18.1 15-34.3 15.2-36.5.4-3.2-.7-6.9-5.7-19-3.4-8.3-7.2-17.8-8.5-21.3-1.3-3.4-3.2-7.7-4.3-9.4l-2-3.1-1.5 2.4zM266.1 434.5c-4.8 7.5-12.1 22.9-12.1 25.8 0 1.3.5 1.7 1.8 1.3 3-.9 19.5-3.5 26.2-4.1 3.6-.4 7-.8 7.7-1 .7-.2 1.5 0 1.9.6.4.7 1 .7 1.8 0 1.8-1.5 36.8-1.1 49.6.5 38.2 4.9 71.3 17.5 100.5 38.4 5.5 3.8 10.3 7 10.8 7 2 0-8.5-12.9-15.4-18.9-9.6-8.2-13.1-11.1-13.3-11.1-.2 0-3.9-2.2-8.4-4.9-10.8-6.5-25.7-12.9-43.2-18.6-8-2.6-15.2-4.9-16-5.2-1.2-.4-1.1-.7.5-1.4 2.1-.9 58-.4 65.5.6 8.9 1.2 11.5 1.4 14.3 1.5 1.5 0 3.5.9 4.4 1.9.9 1.1 2.1 1.7 2.7 1.3 2.3-1.4 8.7-1 23.6 1.4 8.5 1.4 15.8 2.8 16.3 3.1 1.4.9 12.5.9 12 0-.6-1-7.6-4.1-13.9-6.3-10.2-3.5-45.3-10.9-65.4-13.8-30-4.4-40-4.9-98.4-5l-49-.1-4.5 7z"/><path d="M394.1 447.7c-2.3.5-2.1.7 2 3.2 7.3 4.5 24.8 13.5 25.3 13 .7-.7-2.5-13.3-3.8-14.5-1.1-1.2-19.3-2.5-23.5-1.7zM428.5 462.1c-.4.6-.5 1.2-.2 1.5.2.3.7-.2 1-1.1.7-1.7.1-2-.8-.4zM400.9 482.2c1.6 4.2 21.7 50 41.9 95.3 11 24.7 21.9 49.5 24.2 55 5.5 12.9 9.5 20.8 11.3 22.3 1.2 1.1 1.3.6.6-3-5.3-28.6-19.1-78.7-34.6-125.8-8.6-26.2-8.7-26.5-13.5-31.2-5.5-5.5-11.5-8.7-22.4-12.3-4.2-1.4-7.8-2.5-8-2.5-.2 0 0 1 .5 2.2zM244.5 486c.3.5.8 1 1.1 1 .2 0 .4-.5.4-1 0-.6-.5-1-1.1-1-.5 0-.7.4-.4 1z"/></svg>